# xmcd
#
# Track frame offsets: 
#        150
#        18645
#        51272
#        82252
#        109735
#        140887
#        155415
#        173117
#        196362
#        226132
#
# Disc length: 3186 seconds
#
# Revision: 1
# Processed by: cddbd v1.5.2PL0 Copyright (c) Steve Scherf et al.
# Submitted via: ExactAudioCopy v0.99pb4
#
DISCID=890c700a
DTITLE=Various Artist - WWOZ on CD - Live From Jazzfest Vol 3
DYEAR=1995
DGENRE=Jazz
TTITLE0=The Golden Eagles/Indian Red
TTITLE1=Alvin Batiste and The Jazztronauts/Music Came
TTITLE2=Re-Birth Brass Band/You Move Ya Lose
TTITLE3=Walter Payton's Snap Bean Revue/Use What You Got
TTITLE4=Steve Masakowski and Friends/Southern Blue
TTITLE5=Eddie Bo/Check Mr. Popeye
TTITLE6=Snooks Eaglin/Dizzy Miss Lizzy
TTITLE7=Deacon John and His All Star Blues Revue/Happy Home
TTITLE8=Willie Lockett and The Blues Krewe/I Can Do Bad Myself
TTITLE9=First Revolution Singers/Leave That Liar Alone
EXTD=YEAR: 1995
EXTT0=
EXTT1=
EXTT2=
EXTT3=
EXTT4=
EXTT5=
EXTT6=
EXTT7=
EXTT8=
EXTT9=
PLAYORDER=
